<?xml version="1.0" encoding="utf-8"?>
<svg viewBox="100.063 62.644 348.673 363" xmlns="http://www.w3.org/2000/svg">
  <path d="M 256.144 100.544 L 256.131 138.544 L 350.931 138.844 C 403.031 139.044 446.231 138.944 446.831 138.644 C 447.531 138.344 432.537 122.244 411.044 100.344 L 373.956 62.644 L 315.056 62.644 L 256.156 62.644 L 256.144 100.544 Z" fill="#000000" stroke="none"/>
  <path d="M 100.856 64.344 C 100.456 64.644 100.135 128.344 100.109 205.744 L 100.063 346.544 L 102.862 349.344 C 107.16 353.644 152.946 397.644 168.441 412.444 L 182.236 425.644 L 315.536 425.644 L 448.736 425.644 L 448.673 316.144 C 448.609 207.344 448.609 206.644 446.609 206.544 C 445.509 206.544 402.309 206.444 350.609 206.444 L 256.609 206.344 L 256.296 244.443 L 256.084 282.644 L 314.084 282.644 L 372.084 282.644 L 372.073 316.144 L 372.062 349.644 L 274.262 349.444 L 176.562 349.144 L 176.309 206.344 L 176.156 63.644 L 138.856 63.644 C 118.256 63.644 101.156 63.944 100.856 64.344 Z" fill="#000000" stroke="none"/>
</svg>
