<svg viewBox="100.063 62.644 348.673 363" xmlns="http://www.w3.org/2000/svg"><path fill="white" d="M256.144 100.544l-.013 38 94.8.3c52.1.2 95.3.1 95.9-.2.7-.3-14.294-16.4-35.787-38.3l-37.088-37.7h-117.8l-.012 37.9z"/><path fill="white" d="M100.856 64.344c-.4.3-.721 64-.747 141.4l-.046 140.8 2.799 2.8c4.298 4.3 50.084 48.3 65.579 63.1l13.795 13.2h266.5l-.063-109.5c-.064-108.8-.064-109.5-2.064-109.6-1.1 0-44.3-.1-96-.1l-94-.1-.313 38.099-.212 38.201h116l-.011 33.5-.011 33.5-97.8-.2-97.7-.3-.253-142.8-.153-142.7h-37.3c-20.6 0-37.7.3-38 .7z"/></svg>